<?xml version="1.0" standalone="no"?>
<svg viewBox="0 0 200 200" xmlns="http://www.w3.org/2000/svg">
  <path fill="#F1C21B" d="M22.1,-45.9C27,-35.5,28.3,-26.3,38,-18.8C47.8,-11.4,66,-5.7,69.1,1.8C72.2,9.3,60.1,18.5,48.2,22.1C36.2,25.7,24.3,23.6,16.3,22.4C8.3,21.2,4.1,20.9,-2.8,25.8C-9.8,30.7,-19.6,40.8,-25.6,40.8C-31.5,40.9,-33.6,30.7,-43.3,22.2C-52.9,13.8,-70.1,6.9,-65.1,2.8C-60.2,-1.2,-33.2,-2.4,-19.2,-3.4C-5.3,-4.4,-4.4,-5.3,-3.4,-18C-2.4,-30.8,-1.2,-55.3,3.7,-61.7C8.6,-68.1,17.2,-56.4,22.1,-45.9Z" transform="translate(100 100)" />
</svg>
